<svg width="50" height="51" viewBox="0 0 50 51" fill="none" xmlns="http://www.w3.org/2000/svg">
<path d="M0 25.0938C0 11.2866 11.1929 0.09375 25 0.09375C38.8071 0.09375 50 11.2866 50 25.0938C50 38.9009 38.8071 50.0938 25 50.0938C11.1929 50.0938 0 38.9009 0 25.0938Z" fill="white"/>
<g clip-path="url(#clip0_1_674)">
<path d="M36.2509 31.9C35.3347 30.977 33.1158 29.6298 32.0393 29.087C30.6373 28.3808 30.5219 28.3231 29.42 29.1418C28.6849 29.6881 28.1963 30.1762 27.3361 29.9928C26.4759 29.8093 24.6066 28.7748 22.9698 27.1434C21.333 25.5119 20.2386 23.5885 20.0545 22.7313C19.8705 21.874 20.3667 21.3912 20.9078 20.6545C21.6705 19.6161 21.6129 19.443 20.9609 18.0411C20.4526 16.9508 19.0663 14.7528 18.1397 13.8413C17.1485 12.8623 17.1485 13.0354 16.5098 13.3008C15.9899 13.5195 15.4911 13.7854 15.0196 14.0951C14.0965 14.7084 13.5842 15.2178 13.2259 15.9833C12.8676 16.7489 12.7067 18.5436 14.5569 21.9046C16.4071 25.2657 17.7053 26.9842 20.3921 29.6633C23.0788 32.3424 25.1449 33.7829 28.1651 35.4767C31.9014 37.5691 33.3345 37.1613 34.1024 36.8036C34.8703 36.446 35.382 35.9382 35.9965 35.0152C36.307 34.5445 36.5735 34.0463 36.7926 33.5268C37.0586 32.8904 37.2317 32.8905 36.2509 31.9Z" stroke="#1C2752" stroke-width="2" stroke-miterlimit="10"/>
</g>
<defs>
<clipPath id="clip0_1_674">
<rect width="26" height="26" fill="white" transform="translate(12 12.0938)"/>
</clipPath>
</defs>
</svg>
