<svg width="55" height="56" viewBox="0 0 55 56" fill="none" xmlns="http://www.w3.org/2000/svg">
<path d="M0 27.5469C0 12.359 12.3122 0.046875 27.5 0.046875C42.6878 0.046875 55 12.359 55 27.5469C55 42.7347 42.6878 55.0469 27.5 55.0469C12.3122 55.0469 0 42.7347 0 27.5469Z" fill="#FFB342"/>
<g clip-path="url(#clip0_1_636)">
<path d="M35.8555 19.5078C34.7031 19.9961 33.6973 20.7383 32.8379 21.7344C31.9785 22.7305 31.4609 23.7461 31.2852 24.7813C31.1875 25.3281 31.1387 25.7969 31.1387 26.1875C31.1387 26.6367 31.1875 27.0078 31.2852 27.3008C32.2031 26.3437 33.3652 25.8652 34.7715 25.8652C36.1777 25.8652 37.3203 26.2754 38.1992 27.0957C39.0781 27.916 39.5176 29.0489 39.5176 30.4942C39.5176 31.8614 39.0488 32.9746 38.1113 33.834C37.1934 34.6934 36.0215 35.1231 34.5957 35.1231C32.6426 35.1231 31.2168 34.4199 30.3184 33.0137C29.9082 32.4082 29.5859 31.666 29.3516 30.7871C29.1172 29.8887 29 28.9707 29 28.0332C29 25.9824 29.5273 24.1074 30.582 22.4082C31.6367 20.709 33.209 19.3809 35.2988 18.4238L35.8555 19.5078ZM23.4922 19.5078C22.3398 19.9961 21.334 20.7383 20.4746 21.7344C19.6152 22.7305 19.0977 23.7461 18.9219 24.7813C18.8242 25.3281 18.7754 25.7969 18.7754 26.1875C18.7754 26.6367 18.8242 27.0078 18.9219 27.3008C19.8398 26.3437 21.0019 25.8652 22.4082 25.8652C23.8144 25.8652 24.957 26.2754 25.8359 27.0957C26.7148 27.916 27.1543 29.0489 27.1543 30.4942C27.1543 31.8614 26.6855 32.9746 25.748 33.834C24.8301 34.6934 23.6582 35.1231 22.2324 35.1231C20.2793 35.1231 18.8535 34.4199 17.9551 33.0137C17.5449 32.4082 17.2227 31.666 16.9883 30.7871C16.7539 29.8887 16.6367 28.9707 16.6367 28.0332C16.6367 25.9824 17.1641 24.1074 18.2187 22.4082C19.2734 20.709 20.8457 19.3809 22.9355 18.4238L23.4922 19.5078Z" fill="#1C2752"/>
</g>
<defs>
<clipPath id="clip0_1_636">
<rect width="24" height="18" fill="white" transform="translate(16 18.0469)"/>
</clipPath>
</defs>
</svg>
