<svg xmlns="http://www.w3.org/2000/svg" width="228" height="48" fill="none"><rect id="backgroundrect" width="100%" height="100%" x="0" y="0" fill="none" stroke="none"/>

<defs>
<clipPath id="clip0_1_975">
<rect width="242" height="48" fill="white" id="svg_1"/>
</clipPath>
</defs>
<g class="currentLayer" style=""><title>Layer 1</title><g clip-path="url(#clip0_1_975)" id="svg_2" class="">
<path d="M57.007215258799974,35.5002 V10.8252 H68.38221525879997 C71.08881525879998,10.8252 73.17721525879998,11.3969 74.64721525879997,12.5402 C76.11721525879997,13.6835 76.85221525879997,15.2469 76.85221525879997,17.2302 C76.85221525879997,18.7002 76.40891525879998,19.9485 75.52221525879997,20.9752 C74.65881525879998,22.0019 73.46881525879998,22.6902 71.95221525879998,23.0402 V22.4802 C73.72551525879997,22.7835 75.09051525879998,23.4602 76.04721525879998,24.5102 C77.02721525879997,25.5369 77.51721525879998,26.8785 77.51721525879998,28.5352 C77.51721525879998,30.7285 76.73551525879998,32.4435 75.17221525879998,33.6802 C73.63221525879997,34.8935 71.49721525879998,35.5002 68.76721525879998,35.5002 H57.007215258799974 zM62.22221525879998,31.4402 H68.10221525879997 C69.45551525879998,31.4402 70.49391525879997,31.1835 71.21721525879998,30.6702 C71.94051525879998,30.1569 72.30221525879998,29.3402 72.30221525879998,28.2202 C72.30221525879998,27.0769 71.94051525879998,26.2602 71.21721525879998,25.7702 C70.49391525879997,25.2569 69.45551525879998,25.0002 68.10221525879997,25.0002 H62.22221525879998 V31.4402 zM62.22221525879998,20.9752 H67.40221525879997 C68.82551525879998,20.9752 69.87551525879998,20.7185 70.55221525879998,20.2052 C71.22891525879997,19.6919 71.56721525879998,18.9219 71.56721525879998,17.8952 C71.56721525879998,16.8919 71.22891525879997,16.1335 70.55221525879998,15.6202 C69.87551525879998,15.1069 68.82551525879998,14.850200000000001 67.40221525879997,14.850200000000001 H62.22221525879998 V20.9752 zM81.02731525879997,35.5002 V9.74023 H86.31231525879997 V35.5002 H81.02731525879997 zM97.07181525879997,35.8852 C94.85511525879997,35.8852 93.21011525879997,35.2785 92.13681525879997,34.0652 C91.06351525879998,32.8285 90.52681525879997,30.9619 90.52681525879997,28.4652 V17.7552 H95.81181525879998 V28.4652 C95.81181525879998,29.5852 96.03351525879998,30.4135 96.47681525879997,30.9502 C96.94351525879998,31.4869 97.65511525879998,31.7552 98.61181525879998,31.7552 C99.66181525879998,31.7552 100.52501525879998,31.3935 101.20201525879997,30.6702 C101.90201525879998,29.9235 102.25201525879997,28.9319 102.25201525879997,27.6952 V17.7552 H107.53701525879998 V35.5002 H102.39201525879997 V32.1052 H102.88201525879998 C102.34501525879998,33.2952 101.57501525879998,34.2285 100.57201525879998,34.9052 C99.59181525879998,35.5585 98.42511525879998,35.8852 97.07181525879997,35.8852 zM120.81701525879997,35.8852 C117.73701525879997,35.8852 115.33301525879997,35.0569 113.60701525879998,33.4002 C111.88001525879997,31.7435 111.01701525879997,29.4919 111.01701525879997,26.6452 C111.01701525879997,24.8019 111.37801525879998,23.1919 112.10201525879998,21.8152 C112.84801525879998,20.4385 113.87501525879998,19.3652 115.18201525879998,18.5952 C116.51201525879998,17.8019 118.06301525879998,17.4052 119.83701525879998,17.4052 C121.58701525879998,17.4052 123.04501525879998,17.7785 124.21201525879998,18.5252 C125.40201525879998,19.2719 126.28801525879997,20.3219 126.87201525879998,21.6752 C127.47801525879997,23.0052 127.78201525879997,24.5569 127.78201525879997,26.3302 V27.5552 H115.35701525879998 V24.9302 H123.93201525879998 L123.33701525879998,25.4202 C123.33701525879998,23.9502 123.03301525879998,22.8419 122.42701525879998,22.0952 C121.84301525879998,21.3252 120.99201525879998,20.9402 119.87201525879998,20.9402 C118.63501525879998,20.9402 117.67801525879997,21.3952 117.00201525879997,22.3052 C116.34801525879998,23.2152 116.02201525879998,24.5219 116.02201525879998,26.2252 V26.7852 C116.02201525879998,28.5119 116.44201525879997,29.7952 117.28201525879997,30.6352 C118.14501525879997,31.4752 119.38201525879998,31.8952 120.99201525879998,31.8952 C121.94801525879997,31.8952 122.84701525879997,31.7785 123.68701525879997,31.5452 C124.55001525879997,31.2885 125.36701525879998,30.8919 126.13701525879998,30.3552 L127.60701525879998,33.8552 C126.72001525879998,34.5085 125.69301525879997,35.0102 124.52701525879998,35.3602 C123.38301525879997,35.7102 122.14701525879998,35.8852 120.81701525879997,35.8852 zM143.42001525879996,35.8852 C140.78301525879996,35.8852 138.5200152588,35.3602 136.63001525879997,34.3102 C134.74001525879999,33.2602 133.28101525879998,31.7902 132.25501525879997,29.9002 C131.25101525879998,27.9869 130.75001525879998,25.7352 130.75001525879998,23.1452 C130.75001525879998,20.5552 131.25101525879998,18.3152 132.25501525879997,16.4252 C133.28101525879998,14.5352 134.74001525879999,13.0652 136.63001525879997,12.0152 C138.5200152588,10.9652 140.78301525879996,10.4402 143.42001525879996,10.4402 C145.12301525879997,10.4402 146.6750152588,10.6852 148.07501525879997,11.1752 C149.47501525879997,11.6419 150.66501525879997,12.3302 151.6450152588,13.2402 L149.93001525879998,17.5452 C148.85601525879997,16.7052 147.8300152588,16.1102 146.85001525879997,15.7602 C145.89301525879998,15.4102 144.80801525879997,15.2352 143.59501525879998,15.2352 C141.28501525879997,15.2352 139.51101525879997,15.9235 138.27501525879998,17.3002 C137.06101525879998,18.6535 136.4550152588,20.6019 136.4550152588,23.1452 C136.4550152588,25.6885 137.06101525879998,27.6485 138.27501525879998,29.0252 C139.51101525879997,30.4019 141.28501525879997,31.0902 143.59501525879998,31.0902 C144.80801525879997,31.0902 145.89301525879998,30.9152 146.85001525879997,30.5652 C147.8300152588,30.2152 148.85601525879997,29.6202 149.93001525879998,28.7802 L151.6450152588,33.0852 C150.66501525879997,33.9719 149.47501525879997,34.6602 148.07501525879997,35.1502 C146.6750152588,35.6402 145.12301525879997,35.8852 143.42001525879996,35.8852 zM162.2640152588,35.8852 C160.37401525879997,35.8852 158.7290152588,35.5119 157.32901525879998,34.7652 C155.95301525879998,33.9952 154.87901525879997,32.9219 154.10901525879999,31.5452 C153.36301525879998,30.1685 152.98901525879998,28.5235 152.98901525879998,26.6102 C152.98901525879998,24.7202 153.36301525879998,23.0869 154.10901525879999,21.7102 C154.87901525879997,20.3335 155.95301525879998,19.2719 157.32901525879998,18.5252 C158.7290152588,17.7785 160.37401525879997,17.4052 162.2640152588,17.4052 C164.15401525879997,17.4052 165.79901525879998,17.7785 167.1990152588,18.5252 C168.59901525879997,19.2719 169.67301525879998,20.3335 170.4190152588,21.7102 C171.18901525879997,23.0869 171.5740152588,24.7202 171.5740152588,26.6102 C171.5740152588,28.5235 171.18901525879997,30.1685 170.4190152588,31.5452 C169.67301525879998,32.9219 168.59901525879997,33.9952 167.1990152588,34.7652 C165.79901525879998,35.5119 164.15401525879997,35.8852 162.2640152588,35.8852 zM162.2640152588,31.8952 C163.47801525879999,31.8952 164.43401525879997,31.4635 165.13401525879996,30.6002 C165.85801525879998,29.7369 166.21901525879997,28.4069 166.21901525879997,26.6102 C166.21901525879997,24.8135 165.85801525879998,23.4952 165.13401525879996,22.6552 C164.43401525879997,21.8152 163.47801525879999,21.3952 162.2640152588,21.3952 C161.05101525879996,21.3952 160.08301525879997,21.8152 159.35901525879999,22.6552 C158.65901525879997,23.4952 158.30901525879997,24.8135 158.30901525879997,26.6102 C158.30901525879997,28.4069 158.65901525879997,29.7369 159.35901525879999,30.6002 C160.08301525879997,31.4635 161.05101525879996,31.8952 162.2640152588,31.8952 zM201.09101525879998,35.8852 C199.55101525879996,35.8852 198.19801525879998,35.5119 197.03101525879998,34.7652 C195.86501525879999,34.0185 194.9550152588,32.9569 194.30101525879996,31.5802 C193.64801525879997,30.2035 193.32101525879997,28.5469 193.32101525879997,26.6102 C193.32101525879997,24.6969 193.64801525879997,23.0519 194.30101525879996,21.6752 C194.9550152588,20.2985 195.86501525879999,19.2485 197.03101525879998,18.5252 C198.19801525879998,17.7785 199.55101525879996,17.4052 201.09101525879998,17.4052 C202.51501525879996,17.4052 203.78601525879998,17.7552 204.90601525879998,18.4552 C206.0500152588,19.1319 206.79601525879997,20.0535 207.14601525879996,21.2202 H206.76101525879997 L207.1810152588,17.7552 H212.25601525879998 C212.18601525879998,18.5252 212.1160152588,19.3069 212.04601525879997,20.1002 C212.00001525879998,20.8702 211.97601525879998,21.6285 211.97601525879998,22.3752 V35.5002 H206.72601525879998 L206.69101525879998,32.1752 H207.11101525879997 C206.73801525879998,33.2952 205.9910152588,34.1935 204.87101525879999,34.8702 C203.75101525879998,35.5469 202.4910152588,35.8852 201.09101525879998,35.8852 zM202.70101525879997,31.8952 C203.91501525879997,31.8952 204.8950152588,31.4635 205.64101525879997,30.6002 C206.38801525879998,29.7369 206.76101525879997,28.4069 206.76101525879997,26.6102 C206.76101525879997,24.8135 206.38801525879998,23.4952 205.64101525879997,22.6552 C204.8950152588,21.8152 203.91501525879997,21.3952 202.70101525879997,21.3952 C201.48801525879998,21.3952 200.5080152588,21.8152 199.76101525879997,22.6552 C199.01501525879996,23.4952 198.64101525879997,24.8135 198.64101525879997,26.6102 C198.64101525879997,28.4069 199.00301525879996,29.7369 199.72601525879998,30.6002 C200.4730152588,31.4635 201.46501525879998,31.8952 202.70101525879997,31.8952 zM216.2760152588,35.5002 V22.4452 C216.2760152588,21.6752 216.2520152588,20.8935 216.20601525879997,20.1002 C216.18201525879996,19.3069 216.12401525879997,18.5252 216.03101525879998,17.7552 H221.10601525879997 L221.70101525879997,22.935200000000002 H220.89601525879996 C221.12901525879997,21.6752 221.5020152588,20.6369 222.01601525879997,19.8202 C222.55201525879997,19.0035 223.20601525879997,18.3969 223.97601525879998,18.0002 C224.76901525879998,17.6035 225.66701525879998,17.4052 226.67101525879997,17.4052 C227.11401525879998,17.4052 227.46401525879998,17.4285 227.72101525879998,17.4752 C227.97701525879998,17.4985 228.23401525879999,17.5569 228.4910152588,17.6502 L228.45601525879997,22.3052 C227.96601525879998,22.0952 227.54601525879997,21.9669 227.19601525879997,21.9202 C226.86901525879998,21.8502 226.4490152588,21.8152 225.93601525879998,21.8152 C224.95601525879997,21.8152 224.1390152588,22.0019 223.48601525879997,22.3752 C222.85601525879997,22.7485 222.3770152588,23.2969 222.05101525879996,24.0202 C221.7470152588,24.7435 221.59601525879998,25.6185 221.59601525879998,26.6452 V35.5002 H216.2760152588 z" fill="white" id="svg_3"/>
<path d="M174.98701525879997,35.5002 V9.74023 H180.27201525879997 V35.5002 H174.98701525879997 zM184.5920152588,35.5002 V9.74023 H189.8770152588 V35.5002 H184.5920152588 z" fill="#FFB342" id="svg_4"/>
<path d="M39.064415258799976,29.598 H44.000015258799976 V25.5 H29.733015258799977 C29.473515258799978,29.7521 25.902815258799976,33.126 21.538115258799976,33.126 C17.173415258799977,33.126 13.602715258799977,29.7521 13.343215258799976,25.5 H3.581999764364203e-7 L-2.356357567834949e-14,29.598 H4.074075258799977 C4.292045258799977,30.4402 4.577485258799976,31.267 4.920025258799976,32.0784 C5.309265258799977,32.9925 5.7711752587999765,33.8655 6.305735258799976,34.6923 L2.7402652587999765,38.2203 L8.355745258799976,43.7768 L11.926415258799976,40.2437 C12.751615258799976,40.7624 13.623515258799976,41.2143 14.531715258799977,41.5943 C15.554115258799976,42.0205 16.607715258799978,42.3543 17.682015258799975,42.5854 V47.5 H25.632915258799976 V42.5443 C26.645015258799976,42.3133 27.636215258799975,41.9949 28.601515258799978,41.5943 C29.577315258799977,41.1886 30.506215258799976,40.7007 31.383315258799975,40.1359 L34.89171525879998,43.6074 L40.512415258799976,38.0457 L36.946915258799976,34.5177 C37.43481525879998,33.7423 37.85521525879998,32.9258 38.21841525879998,32.0784 C38.561015258799976,31.267 38.84641525879998,30.4402 39.064415258799976,29.598 z" fill="white" id="svg_5"/>
<path d="M36.94361525879998,7.67054 V15.9455 C36.94361525879998,16.5071 36.479615258799974,16.9627 35.90781525879998,16.9627 H35.17411525879998 C34.60221525879998,16.9627 34.13831525879998,16.5071 34.13831525879998,15.9455 V5.51968 C32.01271525879998,4.13169 29.628215258799976,3.09334 27.071115258799978,2.5 V16.8567 C27.071115258799978,17.4183 26.607115258799976,17.8739 26.035315258799976,17.8739 H17.943115258799978 C17.371215258799978,17.8739 16.907315258799976,17.4183 16.907315258799976,16.8567 V2.5 C14.382515258799977,3.09334 11.998015258799976,4.14228 9.872495258799976,5.51968 V15.9455 C9.872495258799976,16.5071 9.408545258799977,16.9627 8.836695258799976,16.9627 H8.103005258799977 C7.531155258799976,16.9627 7.067195258799977,16.5071 7.067195258799977,15.9455 V7.67054 C2.7297852587999767,11.612 0.00001525879997643642,17.2381 0.00001525879997643642,23.5 H44.000015258799976 C44.01081525879998,17.2381 41.29181525879998,11.612 36.94361525879998,7.67054 z" fill="#FFB342" id="svg_6"/>
<path d="M25.000015258799976,15.1436 C25.000015258799976,15.6171 24.653015258799975,16 24.216415258799977,16 H19.783615258799976 C19.358215258799977,16 19.000015258799976,15.6171 19.000015258799976,15.1436 V0.856423 C19.000015258799976,0.3828710000000001 19.347015258799978,0 19.783615258799976,0 H24.216415258799977 C24.641815258799976,0 25.000015258799976,0.3828710000000001 25.000015258799976,0.856423 V15.1436 z" fill="#FFB342" id="svg_7"/>
</g></g></svg>